<svg xmlns="http://www.w3.org/2000/svg" width="30" height="30" viewBox="0 0 30 30">
  <g id="icon_analytics" transform="translate(-2619.399 -1307.869)">
    <path id="Объединение_16" data-name="Объединение 16" d="M24.961,30a.828.828,0,0,1-.825-.83V8.121a.826.826,0,0,1,.825-.826h4a.826.826,0,0,1,.826.826V29.17a.829.829,0,0,1-.826.83Zm.82-1.658h2.364V8.953H25.781ZM12.813,30v-.006H9.007a.824.824,0,0,1-.82-.83V12.531a.829.829,0,0,1,.82-.832h4a.834.834,0,0,1,.826.832V29.17a.829.829,0,0,1-.826.83Zm-2.98-1.664H12.2V13.357H9.833Zm7.156,1.658a.822.822,0,0,1-.819-.824V18.012a.827.827,0,0,1,.819-.83l4,.006a.827.827,0,0,1,.826.824V29.17a.827.827,0,0,1-.826.824Zm.82-1.652h2.364v-9.5H17.81ZM1.035,29.988a.823.823,0,0,1-.82-.824V22.449a.824.824,0,0,1,.82-.828h4a.834.834,0,0,1,.833.828v6.715a.826.826,0,0,1-.82.824Zm.82-1.646H4.219V23.279H1.855ZM0,13.158A3.056,3.056,0,0,1,3.034,10.1a2.993,2.993,0,0,1,1.616.479l3.656-3.32a3.04,3.04,0,0,1,2.705-4.416A3.052,3.052,0,0,1,14.046,5.9a2.827,2.827,0,0,1-.091.684l2.873,1.59a3.017,3.017,0,0,1,2.161-.926,2.938,2.938,0,0,1,1.615.477l3.65-3.32a2.987,2.987,0,0,1-.323-1.346,3.034,3.034,0,1,1,3.034,3.057,2.928,2.928,0,0,1-1.616-.479L21.7,8.959a2.993,2.993,0,0,1,.323,1.346,3.034,3.034,0,1,1-6.068,0,2.77,2.77,0,0,1,.089-.682L13.172,8.031A2.975,2.975,0,0,1,9.4,8.48L5.744,11.8a3.05,3.05,0,0,1-2.71,4.416A3.054,3.054,0,0,1,0,13.158Zm1.646-.012a1.392,1.392,0,1,0,1.389-1.4A1.4,1.4,0,0,0,1.646,13.146ZM17.6,10.3a1.391,1.391,0,1,0,1.389-1.406A1.4,1.4,0,0,0,17.6,10.3ZM9.623,5.887a1.391,1.391,0,1,0,1.389-1.4A1.4,1.4,0,0,0,9.623,5.887Zm15.954-2.84a1.392,1.392,0,1,0,1.389-1.406A1.4,1.4,0,0,0,25.577,3.047Z" transform="translate(2619.399 1307.869)" fill="#a2b3ce"/>
  </g>
</svg>
