<svg xmlns="http://www.w3.org/2000/svg" width="25" height="25" viewBox="0 0 25 25">
  <g id="Group_34" data-name="Group 34" transform="translate(-26 -487)">
    <path id="Rectangle_260" data-name="Rectangle 260" d="M2,1.8a.2.2,0,0,0-.2.2V9a.2.2,0,0,0,.2.2H5A.2.2,0,0,0,5.2,9V2A.2.2,0,0,0,5,1.8H2M2,0H5A2,2,0,0,1,7,2V9a2,2,0,0,1-2,2H2A2,2,0,0,1,0,9V2A2,2,0,0,1,2,0Z" transform="translate(26 501)" fill="#94a6c4"/>
    <path id="Rectangle_261" data-name="Rectangle 261" d="M2,1.8a.2.2,0,0,0-.2.2V15a.2.2,0,0,0,.2.2H5a.2.2,0,0,0,.2-.2V2A.2.2,0,0,0,5,1.8H2M2,0H5A2,2,0,0,1,7,2V15a2,2,0,0,1-2,2H2a2,2,0,0,1-2-2V2A2,2,0,0,1,2,0Z" transform="translate(35 495)" fill="#94a6c4"/>
    <path id="Rectangle_262" data-name="Rectangle 262" d="M2,1.8a.2.2,0,0,0-.2.2V23a.2.2,0,0,0,.2.2H5a.2.2,0,0,0,.2-.2V2A.2.2,0,0,0,5,1.8H2M2,0H5A2,2,0,0,1,7,2V23a2,2,0,0,1-2,2H2a2,2,0,0,1-2-2V2A2,2,0,0,1,2,0Z" transform="translate(44 487)" fill="#94a6c4"/>
  </g>
</svg>
