<svg xmlns="http://www.w3.org/2000/svg" width="30" height="26" viewBox="0 0 30 26">
  <g id="icon_audit" transform="translate(-30.006 -257.51)">
    <path id="Контур_56" data-name="Контур 56" d="M181.113,123.2a6.015,6.015,0,0,0-3.633,10.867,10.236,10.236,0,0,0-6.68,9.562.933.933,0,0,0,.937.928h9.141a10.09,10.09,0,0,0-.7,3.714.933.933,0,0,0,.937.928h18.75a.933.933,0,0,0,.937-.928,10.236,10.236,0,0,0-6.68-9.562,6.015,6.015,0,0,0-3.633-10.867,6.093,6.093,0,0,0-3.3.972,6.091,6.091,0,0,0-6.079-5.615Zm0,1.857a4.179,4.179,0,1,1-4.219,4.178A4.184,4.184,0,0,1,181.113,125.057Zm9.375,4.643a4.179,4.179,0,1,1-4.219,4.178A4.184,4.184,0,0,1,190.488,129.7Zm-9.375,5.571a6.135,6.135,0,0,1,3.706.783,6.107,6.107,0,0,0,2.036,2.655,10.364,10.364,0,0,0-5.01,3.99h-9.067a8.35,8.35,0,0,1,8.335-7.428Zm9.375,4.643a8.35,8.35,0,0,1,8.335,7.428h-16.67a8.35,8.35,0,0,1,8.335-7.428Z" transform="translate(-140.794 134.31)" fill="#a2b3ce"/>
  </g>
</svg>
