<svg xmlns="http://www.w3.org/2000/svg" width="23" height="24.405" viewBox="0 0 23 24.405">
  <path id="Path_454" data-name="Path 454" d="M5.643,9.3H22.064q3.289,0,3.289-2.177a5.832,5.832,0,0,0-.795-2.78,9.785,9.785,0,0,0-2.3-2.742A12.219,12.219,0,0,0,18.633-.487a13.363,13.363,0,0,0-4.773-.807,13.407,13.407,0,0,0-4.786.807A12.217,12.217,0,0,0,5.446,1.6a9.786,9.786,0,0,0-2.3,2.742,5.832,5.832,0,0,0-.795,2.78Q2.354,9.3,5.643,9.3ZM5.122,7.162a.594.594,0,0,1-.342-.076.313.313,0,0,1-.1-.27,3.646,3.646,0,0,1,.6-1.794,7.524,7.524,0,0,1,1.775-1.97A10.047,10.047,0,0,1,9.935,1.471,11.32,11.32,0,0,1,13.86.842a11.276,11.276,0,0,1,3.912.63,10.048,10.048,0,0,1,2.883,1.581,7.63,7.63,0,0,1,1.781,1.97,3.621,3.621,0,0,1,.608,1.794.314.314,0,0,1-.1.27.62.62,0,0,1-.354.076ZM13.86-2.866a5.153,5.153,0,0,0,2.864-.842A6.178,6.178,0,0,0,18.8-5.959a6.361,6.361,0,0,0,.774-3.114,6.111,6.111,0,0,0-.768-3.043,5.964,5.964,0,0,0-2.066-2.18,5.318,5.318,0,0,0-2.875-.811A5.269,5.269,0,0,0,11-14.289,6.054,6.054,0,0,0,8.924-12.1a6,6,0,0,0-.761,3.049A6.378,6.378,0,0,0,8.931-5.94,6.084,6.084,0,0,0,10.995-3.7,5.182,5.182,0,0,0,13.86-2.866ZM13.86-5a2.991,2.991,0,0,1-1.717-.535A3.838,3.838,0,0,1,10.885-6.99a4.449,4.449,0,0,1-.473-2.059,4.241,4.241,0,0,1,.466-2,3.7,3.7,0,0,1,1.253-1.406,3.086,3.086,0,0,1,1.729-.517,3.1,3.1,0,0,1,1.735.511,3.679,3.679,0,0,1,1.247,1.394,4.207,4.207,0,0,1,.466,1.993,4.476,4.476,0,0,1-.471,2.064,3.894,3.894,0,0,1-1.252,1.464A2.961,2.961,0,0,1,13.86-5Z" transform="translate(-2.354 15.106)" fill="#94A6C4"/></svg>
