<svg xmlns="http://www.w3.org/2000/svg" width="70" height="33.403" viewBox="0 0 70 33.403">
  <path id="Path_553" data-name="Path 553" d="M25.785,37.569H48.961a5.606,5.606,0,0,0,3.135-.647,2.19,2.19,0,0,0,.9-1.9,7.812,7.812,0,0,0-1.087-3.771,13.329,13.329,0,0,0-3.125-3.693,16.463,16.463,0,0,0-4.917-2.8,18.4,18.4,0,0,0-6.485-1.078,18.482,18.482,0,0,0-6.495,1.078,16.574,16.574,0,0,0-4.937,2.8,13.109,13.109,0,0,0-3.125,3.693,7.866,7.866,0,0,0-1.078,3.771,2.2,2.2,0,0,0,.891,1.9A5.6,5.6,0,0,0,25.785,37.569Zm11.6-17.2a6.691,6.691,0,0,0,3.7-1.087,8.016,8.016,0,0,0,2.7-2.949,8.587,8.587,0,0,0,1.019-4.193,8.136,8.136,0,0,0-1.019-4.075,7.8,7.8,0,0,0-2.713-2.851,7,7,0,0,0-7.386.01A7.91,7.91,0,0,0,30.967,8.1a8.144,8.144,0,0,0-1.029,4.075,8.441,8.441,0,0,0,1.029,4.153,8.066,8.066,0,0,0,2.723,2.949A6.706,6.706,0,0,0,37.383,20.368ZM5.7,37.569H19.672a4.326,4.326,0,0,1-.715-2.537,8.712,8.712,0,0,1,.656-3.125A14.323,14.323,0,0,1,21.4,28.7a13.564,13.564,0,0,1,2.684-2.753,15.227,15.227,0,0,0-3.566-1.675,14.612,14.612,0,0,0-4.565-.656,14.819,14.819,0,0,0-5.623,1.019,13.839,13.839,0,0,0-4.291,2.684A12.288,12.288,0,0,0,3.3,30.957a8.858,8.858,0,0,0-.95,3.869,2.635,2.635,0,0,0,.764,2.038A3.782,3.782,0,0,0,5.7,37.569ZM15.97,20.78a5.891,5.891,0,0,0,3.223-.94,6.915,6.915,0,0,0,2.371-2.566,7.454,7.454,0,0,0,.891-3.644,7.1,7.1,0,0,0-.891-3.556,6.782,6.782,0,0,0-2.371-2.488,6.031,6.031,0,0,0-3.223-.911,5.9,5.9,0,0,0-3.2.931,7.047,7.047,0,0,0-3.282,6.064,7.358,7.358,0,0,0,.891,3.615,6.935,6.935,0,0,0,2.371,2.557A5.891,5.891,0,0,0,15.97,20.78ZM69,37.569a3.782,3.782,0,0,0,2.586-.705,2.635,2.635,0,0,0,.764-2.038,8.858,8.858,0,0,0-.95-3.869,12.288,12.288,0,0,0-2.733-3.634,13.84,13.84,0,0,0-4.291-2.684,14.929,14.929,0,0,0-5.662-1.019,14.659,14.659,0,0,0-4.545.656,14.371,14.371,0,0,0-3.546,1.675A13.564,13.564,0,0,1,53.311,28.7a14.323,14.323,0,0,1,1.783,3.2,8.712,8.712,0,0,1,.656,3.125,4.244,4.244,0,0,1-.735,2.537ZM58.718,20.78a5.891,5.891,0,0,0,3.223-.94,7.014,7.014,0,0,0,2.38-2.557,7.3,7.3,0,0,0,.9-3.615A7.047,7.047,0,0,0,61.941,7.6a5.936,5.936,0,0,0-3.223-.931,6,6,0,0,0-3.2.911,6.782,6.782,0,0,0-2.371,2.488,7.1,7.1,0,0,0-.891,3.556,7.454,7.454,0,0,0,.891,3.644,6.915,6.915,0,0,0,2.371,2.566A5.858,5.858,0,0,0,58.718,20.78Z" transform="translate(-2.354 -4.166)" fill="#d3e3fd"/>
</svg>
