<svg xmlns="http://www.w3.org/2000/svg" width="22.624" height="30.6" viewBox="0 0 22.624 30.6">

  <g id="bell" transform="translate(-33.688 -977.7)">
    <path id="Контур_61" data-name="Контур 61"
      d="M242.478,105.376l-1.652-2.636-.39-8.293a.439.439,0,0,0,0-.051,9.784,9.784,0,0,0-5.451-7.606V84.422a3.407,3.407,0,0,0-6.8,0v2.357a9.391,9.391,0,0,0-5.455,7.666l-.427,8.608-1.6,2.295a.647.647,0,0,0-.033.694.722.722,0,0,0,.629.357h6.433v1.14a3.858,3.858,0,0,0,7.706,0V106.4h6.433a.722.722,0,0,0,.62-.342.645.645,0,0,0-.008-.681ZM229.6,84.422a1.977,1.977,0,0,1,3.949,0V86.31a8.435,8.435,0,0,0-1.974-.236,8.626,8.626,0,0,0-1.974.236Zm4.4,23.117a2.429,2.429,0,0,1-4.85,0V106.4H234v1.14Zm.714-2.495h-12.1l.975-1.4a.659.659,0,0,0,.117-.341l.432-8.75c.423-3.541,3.113-7.125,7.435-7.125,4.231,0,6.983,3.656,7.432,7.1l.4,8.437a.652.652,0,0,0,.1.316l1.1,1.759Z"
      transform="translate(-186.579 896.806)" fill="#a2b3ce" stroke="#a2b3ce" stroke-width="0.6" />
    <circle id="Эллипс_7" data-name="Эллипс 7" cx="3" cy="3" r="3" transform="translate(49.001 986)" fill="#e05252" />
  </g>
</svg>