<svg xmlns="http://www.w3.org/2000/svg" width="15" height="16" viewBox="0 0 15 16"><path d="M1.98,16A1.961,1.961,0,0,1,0,14.06V5.205c0-.018,0-.036,0-.054S0,5.115,0,5.1V3.223A1.961,1.961,0,0,1,1.98,1.283H3.851V.551a.562.562,0,0,1,1.124,0v.732h5V.551a.562.562,0,0,1,1.124,0v.732h1.928A1.961,1.961,0,0,1,15,3.223v1.9c0,.01,0,.02,0,.031s0,.021,0,.031V14.06a1.9,1.9,0,0,1-.577,1.371,1.983,1.983,0,0,1-1.4.57Zm-.854-1.94a.846.846,0,0,0,.854.837H13.022a.846.846,0,0,0,.855-.837V5.7H1.126ZM13.876,4.6V3.223a.847.847,0,0,0-.855-.838H11.094v.589a.536.536,0,0,1-.162.388.563.563,0,0,1-.4.163.558.558,0,0,1-.563-.551V2.386h-5v.589a.562.562,0,0,1-1.124,0V2.386H1.98a.847.847,0,0,0-.854.838V4.6Z" fill="#94a6c4"/></svg>