<svg xmlns="http://www.w3.org/2000/svg" width="16" height="16" viewBox="0 0 16 16">
  <path id="Контур_105" data-name="Контур 105" d="M94.384,6.714H84.508a1.635,1.635,0,0,0-1.148.47,1.6,1.6,0,0,0-.477,1.134V9.747h-1.25a1.636,1.636,0,0,0-1.148.471,1.6,1.6,0,0,0-.476,1.134v9.757a1.6,1.6,0,0,0,.476,1.134,1.636,1.636,0,0,0,1.148.47h9.876a1.635,1.635,0,0,0,1.148-.47,1.6,1.6,0,0,0,.477-1.134V19.68h1.251a1.636,1.636,0,0,0,1.148-.471,1.6,1.6,0,0,0,.476-1.134V8.318a1.6,1.6,0,0,0-.477-1.134,1.635,1.635,0,0,0-1.148-.47Zm-2.263,14.4a.6.6,0,0,1-.179.427.616.616,0,0,1-.432.177H81.633a.616.616,0,0,1-.432-.177.6.6,0,0,1-.179-.427V11.352a.6.6,0,0,1,.179-.427.617.617,0,0,1,.432-.177h9.876a.617.617,0,0,1,.432.177.6.6,0,0,1,.179.427ZM95,18.075a.6.6,0,0,1-.179.427.617.617,0,0,1-.432.177h-1.25V11.352a1.6,1.6,0,0,0-.476-1.134,1.635,1.635,0,0,0-1.148-.471H83.9V8.318a.6.6,0,0,1,.179-.427.616.616,0,0,1,.432-.177h9.875a.616.616,0,0,1,.432.177A.6.6,0,0,1,95,8.318Z" transform="translate(-80.009 -6.714)" fill="#94a6c4"/>
</svg>
