<svg xmlns="http://www.w3.org/2000/svg" width="16" height="15.607" viewBox="0 0 16 15.607">
  <path id="Объединение_39" data-name="Объединение 39" d="M12615.915,23089.607a1.918,1.918,0,0,1-1.916-1.918v-9.025a1.917,1.917,0,0,1,1.916-1.916h6.877a.539.539,0,1,1,0,1.078h-6.877a.831.831,0,0,0-.835.838v9.025a.826.826,0,0,0,.835.836h9.027a.823.823,0,0,0,.837-.836v-6.084a.539.539,0,0,1,.159-.377.524.524,0,0,1,.38-.164.534.534,0,0,1,.382.164.546.546,0,0,1,.159.383v6.078a1.919,1.919,0,0,1-1.917,1.918Zm6.877-12.713Zm-2.8,7.559a.562.562,0,0,1-.443-.447,4.5,4.5,0,0,1,.091-1.748,4.385,4.385,0,0,1,.211-.652l.011-.023a1.185,1.185,0,0,1,.284-.457l6.8-6.789a1.135,1.135,0,0,1,.809-.336h.124a1.5,1.5,0,0,1,.905.438l.785.785a1.3,1.3,0,0,1,.107,1.838l-6.8,6.795a1.088,1.088,0,0,1-.427.27l-.051.021a4.4,4.4,0,0,1-.66.217,4.936,4.936,0,0,1-1.132.141A3.477,3.477,0,0,1,12619.988,23084.453Zm.938-2.582c-.006.006-.012.018-.018.023-.017.035-.045.078-.067.131a2.706,2.706,0,0,0-.159.488,3.555,3.555,0,0,0-.086.883,3.632,3.632,0,0,0,.882-.086,3.963,3.963,0,0,0,.5-.158,1.044,1.044,0,0,0,.13-.068c.006-.006.012-.006.012-.012l5.6-5.592-1.2-1.2Zm6.769-6.775-.421.422,1.2,1.2.426-.422c.023-.021.047-.154-.1-.307-.13-.131-.256-.256-.38-.387s-.273-.273-.4-.4a.391.391,0,0,0-.217-.119h-.04C12627.718,23075.086,12627.7,23075.09,12627.7,23075.1Z" transform="translate(-12613.999 -23074)" fill="#37336e"/>
</svg>
