<svg xmlns="http://www.w3.org/2000/svg" width="18" height="19.8" viewBox="0 0 18 19.8">
  <path id="Контур_269" data-name="Контур 269" d="M236.508,151.512l4.771,5.025c.77.8-.385,2.006-1.155,1.2l-3.216-3.354c-.158-.165-.287-.108-.287.127v9.253a.817.817,0,1,1-1.633,0v-9.253c0-.234-.128-.292-.287-.127l-3.215,3.354c-.77.8-1.925-.4-1.155-1.2l4.739-5.019a.977.977,0,0,1,1.437-.006Zm6.661,17.363V165.9a.819.819,0,1,1,1.636,0v3.831A1.252,1.252,0,0,1,243.575,171H228.037a1.256,1.256,0,0,1-1.231-1.274V165.9a.819.819,0,1,1,1.636,0v2.979a.419.419,0,0,0,.409.424h13.909a.419.419,0,0,0,.409-.424Z" transform="translate(-226.806 -151.2)" fill="#94a6c4" fill-rule="evenodd"/>
</svg>
