<svg xmlns="http://www.w3.org/2000/svg" width="23" height="29" viewBox="0 0 23 29">
  <path id="Объединение_18" data-name="Объединение 18" 
  d="M12614.828,23103a.836.836,0,0,1-.825-.846v-24.582a.836.836,0,0,1,.825-.846h1.8v-1.875a.842.842,0,0,1,.831-.852h14.862a.812.812,0,0,1,.587.25l3.854,4a.83.83,0,0,1,.243.6v20.582a.842.842,0,0,1-.831.852h-1.8v1.875a.841.841,0,0,1-.831.846Zm.825-1.7h17.066v-1.027h-15.264a.841.841,0,0,1-.831-.846v-21.008h-.972Zm2.627-2.721h17.066v-18.887h-3.028a.836.836,0,0,1-.825-.848v-3.146h-13.213Zm14.868-20.586h1.04l-1.04-1.08Z" transform="translate(-12614.003 -23074)" fill="#a2b3ce"/>
</svg>
