<svg xmlns="http://www.w3.org/2000/svg" width="19.699" height="24.701" viewBox="0 0 19.699 24.701">
  <path id="Subtraction_1" data-name="Subtraction 1" d="M16.412,23099H3.89a3.687,3.687,0,0,1-2.69-.893,3.636,3.636,0,0,1-.9-2.678v-17.549a3.663,3.663,0,0,1,.9-2.684,3.666,3.666,0,0,1,2.69-.9H9.519a5.553,5.553,0,0,1,1.693.221,3.618,3.618,0,0,1,1.333.9l6.325,6.342a4.454,4.454,0,0,1,.725.9,2.731,2.731,0,0,1,.319.934A8.192,8.192,0,0,1,20,23084.9v10.533a3.656,3.656,0,0,1-.893,2.678A3.7,3.7,0,0,1,16.412,23099Zm-12.371-22.9a1.924,1.924,0,0,0-1.426.492,1.906,1.906,0,0,0-.493,1.387v17.361a1.89,1.89,0,0,0,.487,1.393,1.915,1.915,0,0,0,1.42.492H16.261a1.959,1.959,0,0,0,1.438-.492,1.89,1.89,0,0,0,.487-1.393v-10.377H11.519a2.275,2.275,0,0,1-1.664-.539,2.208,2.208,0,0,1-.545-1.646v-6.678Zm6.875.121v6.332a.849.849,0,0,0,.2.619.875.875,0,0,0,.626.2h6.319Z" transform="translate(-0.301 -23074.299)" fill="#94a6c4"/>
</svg>
