<svg xmlns="http://www.w3.org/2000/svg" width="16" height="14" viewBox="0 0 16 14">
  <path id="Объединение_35" data-name="Объединение 35" d="M12614.921,23088a.987.987,0,0,1-.922-1.033v-11.934a.982.982,0,0,1,.922-1.033h2.827a.869.869,0,0,1,.6.244l.894.85a.03.03,0,0,0,.022.012h8.076a.983.983,0,0,1,.922,1.033v1.986c0,.043.028.072.046.072h.779a.978.978,0,0,1,.915,1.027,1,1,0,0,1-.022.227l-1.581,7.746a.948.948,0,0,1-.9.8Zm2.031-8.4-1.439,7.125c-.011.045.011.092.034.1h11.8c.018,0,.041-.018.047-.053l1.483-7.293c.012-.047-.012-.094-.033-.1h-11.655A.256.256,0,0,0,12616.952,23079.6Zm-1.883-4.346v8.332l.927-4.582a.953.953,0,0,1,.9-.8h10.244c.022,0,.045-.029.045-.072v-1.77c0-.041-.022-.07-.045-.07h-7.951a.886.886,0,0,1-.6-.248l-.894-.852s-.011-.006-.022-.006h-2.56C12615.1,23075.182,12615.069,23075.211,12615.069,23075.254Z" transform="translate(-12613.999 -23074.002)" fill="#37336e"/>
</svg>
