<svg xmlns="http://www.w3.org/2000/svg" width="16" height="14" viewBox="0 0 16 14">
  <path id="Объединение_30" data-name="Объединение 30" d="M12615.69,23088a1.715,1.715,0,0,1-1.69-1.74v-8.068h.006v-.006a.234.234,0,0,1-.006-.066v-2.381a1.719,1.719,0,0,1,1.69-1.738h5.834a1.387,1.387,0,0,1,1.114.607,4.3,4.3,0,0,1,.328.543c.057.1.107.205.163.3l.657,1.07h4.527a1.719,1.719,0,0,1,1.686,1.742v8a1.714,1.714,0,0,1-1.686,1.74Zm-.249-10.33a.638.638,0,0,0-.1.053l-.018.012c-.021.018-.05.043-.073.064l-.017.012a.924.924,0,0,1-.057.074c-.006.006-.006.014-.012.014l0,.012a.543.543,0,0,0-.039.088.018.018,0,0,0-.006.012l-.006.01a.5.5,0,0,0-.028.084v.016l-.006.023a.721.721,0,0,0-.012.117v8a.624.624,0,0,0,.622.643h12.624a.623.623,0,0,0,.616-.643v-8a.621.621,0,0,0-.616-.641h-12.636a.461.461,0,0,0-.1.014h-.017c-.04.01-.073.021-.107.033h-.006Zm-.373-1.932v.9a1.781,1.781,0,0,1,.481-.117,1.083,1.083,0,0,1,.135-.006h6.842l-.3-.482c-.084-.145-.163-.279-.226-.408a2.964,2.964,0,0,0-.215-.361c-.112-.15-.136-.162-.261-.162h-5.84A.62.62,0,0,0,12615.068,23075.734Zm-1.068,2.447h.006Z" transform="translate(-12614 -23073.996)" fill="#37336e"/>
</svg>
