<svg xmlns="http://www.w3.org/2000/svg" width="30" height="28" viewBox="0 0 30 28">
  <g id="icon_journey" transform="translate(-1803.87 -1372.799)">
    <path id="Объединение_10" data-name="Объединение 10" d="M22.422,28a.824.824,0,0,1-.831-.813V20.595a.824.824,0,0,1,.831-.813h2.543V16.465H15.832v3.317h2.619a.82.82,0,0,1,.755.813v6.592a.824.824,0,0,1-.831.813h-6.75a.822.822,0,0,1-.829-.813V20.595a.822.822,0,0,1,.829-.813h2.543V16.465H5.035v3.317H7.578a.823.823,0,0,1,.831.813v6.592A.823.823,0,0,1,7.578,28H.832A.823.823,0,0,1,0,27.187V20.595a.818.818,0,0,1,.752-.813H3.375v-4.13a.813.813,0,0,1,.752-.813H14.168V11.126a5.642,5.642,0,0,1-4.89-5.533,5.724,5.724,0,0,1,11.445,0,5.642,5.642,0,0,1-4.89,5.533v3.713h9.962a.821.821,0,0,1,.831.813v4.13h2.623a.817.817,0,0,1,.752.813v6.592a.822.822,0,0,1-.832.813Zm.832-1.626H28.34V21.408H23.254Zm-10.8,0h5.086V21.408H12.458Zm-10.795,0H6.746V21.408H1.663ZM12.127,2.785a3.919,3.919,0,0,0,0,5.614,4.136,4.136,0,0,0,5.748,0,3.91,3.91,0,0,0,0-5.614,4.144,4.144,0,0,0-5.748,0Z" transform="translate(1803.87 1372.799)" fill="#a2b3ce"/>
  </g>
</svg>
