<svg xmlns="http://www.w3.org/2000/svg" width="16" height="16" viewBox="0 0 16 16">
  <path id="logout" d="M82.264,11.572,85.77,8.5a.666.666,0,0,0,.063-.941A.654.654,0,0,0,85.77,7.5L82.243,4.415a.667.667,0,0,0-.912.032l0,0a.6.6,0,0,0,0,.848l.022.021L83.6,7.336H74.666a.667.667,0,1,0,0,1.333H83.6l-2.218,1.921a.646.646,0,0,0-.065.911l.01.011,0,0a.667.667,0,0,0,.933.054ZM80,3.339a.667.667,0,0,1-.667-.667V1.339H72a.667.667,0,0,0-.667.667v12a.667.667,0,0,0,.667.667h7.337V13.34a.667.667,0,1,1,1.334,0v1.333a1.441,1.441,0,0,1-1.334,1.333h-8A1.434,1.434,0,0,1,70,14.673V1.339A1.434,1.434,0,0,1,71.332.006h8a1.445,1.445,0,0,1,1.333,1.333l0,1.333A.666.666,0,0,1,80,3.339h0Z" transform="translate(-69.998 -0.006)" fill="#ff3b45" fill-rule="evenodd"/>
</svg>
