<svg xmlns="http://www.w3.org/2000/svg" width="46" height="33" viewBox="0 0 46 33">
  <path id="Path_556" data-name="Path 556" d="M98,130.78V101.367l16.867,14.706C113.589,117.2,102.038,127.3,98,130.78Zm23.051-12.964c.511-.41,20.853-18.14,20.853-18.14H100.1l20.751,18.14h.2Zm1.84,2.049a2.655,2.655,0,0,1-1.891.717,2.776,2.776,0,0,1-1.942-.717l-2.1-1.9c-1.38,1.178-12.931,11.222-16.867,14.706h41.911l-16.969-14.758a22.467,22.467,0,0,1-2.147,1.947Zm4.242-3.741L144,130.729V101.367C144,101.418,128.769,114.69,127.133,116.125Z" transform="translate(-98 -99.676)" fill="#d3e3fd"/>
</svg>
