<svg xmlns="http://www.w3.org/2000/svg" width="15.999" height="12.999" viewBox="0 0 15.999 12.999">
  <path id="Union_61" data-name="Union 61" d="M11939.409-3621.789a1.459,1.459,0,0,1-1.131-.492,1.79,1.79,0,0,1-.443-1.242v-9.558a1.752,1.752,0,0,1,.443-1.215,1.458,1.458,0,0,1,1.131-.492h5.277l1.17,1.293h6.4a1.459,1.459,0,0,1,1.131.492,1.782,1.782,0,0,1,.444,1.239v8.241a1.791,1.791,0,0,1-.444,1.242,1.459,1.459,0,0,1-1.131.492Zm-.362-11.673a.551.551,0,0,0-.142.381v9.558a.588.588,0,0,0,.142.408.47.47,0,0,0,.362.153h12.85a.469.469,0,0,0,.363-.153.592.592,0,0,0,.141-.408v-8.241a.585.585,0,0,0-.141-.405.462.462,0,0,0-.363-.156h-6.846l-1.167-1.29h-4.837A.46.46,0,0,0,11939.047-3633.462Zm5.949,8.307,1.784-1.95h-3.912v-1.173h3.912l-1.784-1.95.773-.855,3.045,3.39-3.045,3.393Z" transform="translate(-11937.835 3634.788)" fill="#94a6c4"/>
</svg>
