<svg xmlns="http://www.w3.org/2000/svg" width="16" height="11" viewBox="0 0 16 11">
  <path id="Union_12" data-name="Union 12" d="M17791.889-671c-2.748,0-5.367-1.753-7.785-5.211,0,0,0-.007,0-.01a.555.555,0,0,1-.016-.617.234.234,0,0,1,.078-.068c.043-.044.148-.173.25-.3.924-1.136,3.73-4.6,7.531-4.794h0c2.8-.075,5.477,1.654,7.953,5.139a.56.56,0,0,1,.016.614c-.133.21-3.293,5.133-7.871,5.245Zm-6.715-5.54c2.186,3.014,4.486,4.512,6.844,4.455a7.2,7.2,0,0,0,4.557-1.878,13.225,13.225,0,0,0,2.244-2.556c-2.6-3-4.746-4.394-6.75-4.394h-.086C17788.426-680.677,17785.734-677.3,17785.174-676.541Zm4.717,2.22a3.131,3.131,0,0,1-.867-2.18,3.124,3.124,0,0,1,.869-2.18,2.951,2.951,0,0,1,2.105-.905,2.91,2.91,0,0,1,2.109.905,3.118,3.118,0,0,1,.871,2.18,3.118,3.118,0,0,1-.871,2.18,2.91,2.91,0,0,1-2.109.905A2.945,2.945,0,0,1,17789.891-674.32Zm.75-3.6a2.14,2.14,0,0,0-.568,1.42,2.03,2.03,0,0,0,.566,1.417,1.873,1.873,0,0,0,1.359.583,1.882,1.882,0,0,0,1.363-.583,2.036,2.036,0,0,0,.564-1.417,2.169,2.169,0,0,0-.57-1.42,1.885,1.885,0,0,0-1.357-.58A1.888,1.888,0,0,0,17790.641-677.921Z" transform="translate(-17784 682.001)" fill="#94a6c4"/>
</svg>
