<svg xmlns="http://www.w3.org/2000/svg" width="16" height="6.095" viewBox="0 0 16 6.095">
  <path id="Контур_169" data-name="Контур 169" d="M9.249,7.344a6.875,6.875,0,0,1-3.2-.845A11.45,11.45,0,0,1,3.567,4.69,15.5,15.5,0,0,1,1.335,2.08a.541.541,0,0,1,.156-.744.531.531,0,0,1,.738.158c.042.064,3.142,4.775,7.019,4.775s6.989-4.728,7.02-4.775a.531.531,0,0,1,.738-.157.54.54,0,0,1,.156.744,15.5,15.5,0,0,1-2.232,2.61A11.45,11.45,0,0,1,12.445,6.5,6.876,6.876,0,0,1,9.249,7.344Z" transform="translate(-1.249 -1.249)" fill="#94a6c4"/>
</svg>
