<svg xmlns="http://www.w3.org/2000/svg" xmlns:xlink="http://www.w3.org/1999/xlink" width="910" height="1140" viewBox="0 0 910 1140">
  <defs>
    <filter id="Контур_168" x="0" y="0" width="910" height="1140" filterUnits="userSpaceOnUse">
      <feOffset dx="-6" input="SourceAlpha"/>
      <feGaussianBlur stdDeviation="10" result="blur"/>
      <feFlood flood-color="#61768f" flood-opacity="0.161"/>
      <feComposite operator="in" in2="blur"/>
      <feComposite in="SourceGraphic"/>
    </filter>
  </defs>
  <g id="POPUP" transform="translate(-1034 30)">
    <g transform="matrix(1, 0, 0, 1, 1034, -30)" filter="url(#Контур_168)">
      <path id="Контур_168-2" data-name="Контур 168" d="M0,0H850V1080H0Z" transform="translate(36 30)" fill="#fff"/>
    </g>
    <text id="Фильтры" transform="translate(1172 79)" fill="#37336e" font-size="20" font-family="Inter-SemiBold, Inter" font-weight="600"><tspan x="0" y="0">Фильтры</tspan></text>
    <line id="Линия_43" data-name="Линия 43" x1="850" transform="translate(1070 124)" fill="none" stroke="#e0e9f7" stroke-width="1"/>
    <line id="Линия_76" data-name="Линия 76" x1="850" transform="translate(1070 878)" fill="none" stroke="#e0e9f7" stroke-width="1"/>
    <line id="Линия_44" data-name="Линия 44" y2="754" transform="translate(1240 124)" fill="none" stroke="#e0e9f7" stroke-width="1"/>
    <text id="Врачи" transform="translate(1130 218)" fill="#9eb4d1" font-size="14" font-family="Inter-Regular, Inter"><tspan x="0" y="0">Врачи</tspan></text>
    <text id="у_которых" data-name="у которых" transform="translate(1270 214)" fill="#9eb4d1" font-size="14" font-family="Inter-Regular, Inter"><tspan x="0" y="0">у которых</tspan></text>
    <text id="Введите_значение" data-name="Введите значение" transform="translate(1577 214)" fill="#37336e" font-size="14" font-family="Inter-Regular, Inter"><tspan x="0" y="0">Введите значение</tspan></text>
    <text id="содержит" transform="translate(1484 214)" fill="#37336e" font-size="14" font-family="Inter-Medium, Inter" font-weight="500"><tspan x="0" y="0">содержит</tspan></text>
    <text id="специальность" transform="translate(1359 214)" fill="#826aff" font-size="14" font-family="Inter-Medium, Inter" font-weight="500"><tspan x="0" y="0">специальность</tspan></text>
    <line id="Линия_45" data-name="Линия 45" x2="107" transform="translate(1359 221)" fill="none" stroke="#826aff" stroke-linecap="round" stroke-width="2" stroke-dasharray="0 4"/>
    <line id="Линия_49" data-name="Линия 49" x2="69" transform="translate(1485 221)" fill="none" stroke="#37336e" stroke-linecap="round" stroke-width="2" stroke-dasharray="0 4"/>
    <line id="Линия_48" data-name="Линия 48" x2="125" transform="translate(1577 221)" fill="none" stroke="#9eb4d1" stroke-linecap="round" stroke-width="1"/>
    <line id="Линия_77" data-name="Линия 77" x1="850" transform="translate(1070 935)" fill="none" stroke="#e0e9f7" stroke-width="1"/>
    <text id="И" transform="translate(1130 912)" fill="#826aff" font-size="14" font-family="Inter-Medium, Inter" font-weight="500"><tspan x="0" y="0">И</tspan></text>
    <text id="Или" transform="translate(1170 912)" fill="#826aff" font-size="14" font-family="Inter-Medium, Inter" font-weight="500"><tspan x="0" y="0">Или</tspan></text>
    <text id="Не_и" data-name="Не и" transform="translate(1227 912)" fill="#826aff" font-size="14" font-family="Inter-Medium, Inter" font-weight="500"><tspan x="0" y="0">Не и</tspan></text>
    <text id="Не_или" data-name="Не или" transform="translate(1288 912)" fill="#826aff" font-size="14" font-family="Inter-Medium, Inter" font-weight="500"><tspan x="0" y="0">Не или</tspan></text>
    <path id="Объединение_5" data-name="Объединение 5" d="M12618.453-5061.547v-3.91h-3.907a.545.545,0,0,1-.545-.545.545.545,0,0,1,.545-.545h3.907v-3.909a.544.544,0,0,1,.545-.545.545.545,0,0,1,.548.545v3.909h3.909a.545.545,0,0,1,.545.545.545.545,0,0,1-.545.545h-3.909v3.91a.545.545,0,0,1-.548.545A.544.544,0,0,1,12618.453-5061.547Z" transform="translate(-10892 5276.501)" fill="#9eb4d1"/>
    <g id="icon" transform="translate(34 -57)">
      <path id="Объединение_13" data-name="Объединение 13" d="M12618.453-5061.547v-3.91h-3.907a.545.545,0,0,1-.545-.545.545.545,0,0,1,.545-.545h3.907v-3.909a.544.544,0,0,1,.545-.545.545.545,0,0,1,.548.545v3.909h3.909a.545.545,0,0,1,.545.545.545.545,0,0,1-.545.545h-3.909v3.91a.545.545,0,0,1-.548.545A.544.544,0,0,1,12618.453-5061.547Z" transform="translate(-10801.002 5285.001)" fill="#94a6c4"/>
      <g id="Прямоугольник_119" data-name="Прямоугольник 119" transform="translate(1810 211)" fill="none" stroke="#94a6c4" stroke-width="1">
        <rect width="16" height="16" rx="3" stroke="none"/>
        <rect x="0.5" y="0.5" width="15" height="15" rx="2.5" fill="none"/>
      </g>
    </g>
    <g id="button_close" transform="translate(1130 66)">
      <path id="Контур_241" data-name="Контур 241" d="M10.489,11.741,6,7.252,1.511,11.741A.886.886,0,0,1,.258,10.489L4.748,6,.258,1.511A.886.886,0,0,1,1.511.259L6,4.749,10.489.262a.885.885,0,0,1,1.252,1.252L7.253,6l4.488,4.488a.885.885,0,0,1-1.252,1.252Z" fill="#94a6c4"/>
    </g>
    <g id="button_create" transform="translate(141 909)">
      <rect id="Прямоугольник_5" data-name="Прямоугольник 5" width="106" height="37" rx="8" transform="translate(1613 74)" fill="#826aff"/>
      <text id="Сохранить" transform="translate(1629 98)" fill="#fff" font-size="14" font-family="Inter-Medium, Inter" font-weight="500"><tspan x="0" y="0">Сохранить</tspan></text>
    </g>
    <g id="button_create-2" data-name="button_create" transform="translate(-128 909)">
      <g id="Прямоугольник_5-2" data-name="Прямоугольник 5" transform="translate(1613 74)" fill="#fff" stroke="#94a6c4" stroke-width="2">
        <rect width="101" height="37" rx="8" stroke="none"/>
        <rect x="1" y="1" width="99" height="35" rx="7" fill="none"/>
      </g>
      <text id="Отменить" transform="translate(1629 98)" fill="#94a6c4" font-size="14" font-family="Inter-Medium, Inter" font-weight="500"><tspan x="0" y="0">Отменить</tspan></text>
    </g>
    <rect id="Прямоугольник_203" data-name="Прямоугольник 203" width="112" height="78" transform="translate(1485 673)" fill="red"/>
    <text id="Отменить-2" data-name="Отменить" transform="translate(1635 1007)" fill="#94a6c4" font-size="14" font-family="Inter-Medium, Inter" font-weight="500"><tspan x="0" y="0">Отменить</tspan></text>
  </g>
</svg>
