<svg xmlns="http://www.w3.org/2000/svg" width="30" height="30" viewBox="0 0 30 30">
  <path id="icon_admin" d="M99,14a15,15,0,1,0,15,15A15.014,15.014,0,0,0,99,14Zm0,7.295c2.526,0,4.579,2.368,4.579,5.305S101.526,31.937,99,31.937s-4.579-2.368-4.579-5.305S96.474,21.295,99,21.295Zm0,19.958a12.278,12.278,0,0,1-9.032-3.979A5.607,5.607,0,0,1,93.19,33.01l1.421-.663a6.332,6.332,0,0,0,8.779,0l1.421.663a5.608,5.608,0,0,1,3.221,4.263A12.163,12.163,0,0,1,99,41.253Z" transform="translate(-84 -14)" fill="#a2b3ce"/>
</svg>
