<svg xmlns="http://www.w3.org/2000/svg" width="16" height="15" viewBox="0 0 16 15">
  <path id="Union_52" data-name="Union 52" d="M12614.176,3128.824a.6.6,0,0,1-.12-.681l3.1-6.643-3.1-6.639a.6.6,0,0,1,.551-.859.6.6,0,0,1,.255.055l14.787,6.9a.2.2,0,0,1,.031.015.558.558,0,0,1,.1.064l0,0a.086.086,0,0,0,.019.015l.006.006a.534.534,0,0,1,.1.113.133.133,0,0,1,.016.028.482.482,0,0,1,.049.11.263.263,0,0,1,.013.037.583.583,0,0,1,.021.153.591.591,0,0,1-.021.156c0,.009-.007.021-.013.037s-.016.043-.024.065v.012l-.04.061a.588.588,0,0,1-.1.113.137.137,0,0,1-.021.021.981.981,0,0,1-.1.068l-.027.015-14.791,6.9a.625.625,0,0,1-.255.055A.6.6,0,0,1,12614.176,3128.824Zm1.682-1.678,10.808-5.038h-8.454Zm2.354-6.25h8.454l-10.808-5.038Z" transform="translate(-12613.999 -3114.002)" fill="#94a6c4"/>
</svg>
