<svg xmlns="http://www.w3.org/2000/svg" width="16" height="16" viewBox="0 0 16 16">
  <path id="Union_36" data-name="Union 36" d="M12324.891-11439a1.437,1.437,0,0,1-1.025-.425,1.451,1.451,0,0,1-.425-1.042v-.9a5.79,5.79,0,0,1-.652-.262l-.643.642a1.462,1.462,0,0,1-1.033.423h0a1.472,1.472,0,0,1-.965-.356h0l-.759-.759a1.474,1.474,0,0,1-.422-1.035,1.475,1.475,0,0,1,.42-1.034l.062-.062.544-.544a5.422,5.422,0,0,1-.3-.692h-.832a1.456,1.456,0,0,1-1.034-.429,1.454,1.454,0,0,1-.429-1.035v-.971a1.468,1.468,0,0,1,.425-1.041,1.464,1.464,0,0,1,1.038-.437h.771a5.4,5.4,0,0,1,.292-.744l-.535-.537a1.459,1.459,0,0,1-.424-1.034,1.463,1.463,0,0,1,.422-1.035l.7-.694a1.47,1.47,0,0,1,1.035-.422,1.47,1.47,0,0,1,.973.363h.006l.568.57a5.339,5.339,0,0,1,.785-.334v-.7a1.441,1.441,0,0,1,.425-1.039,1.435,1.435,0,0,1,1.025-.427h1a1.439,1.439,0,0,1,1.027.427,1.457,1.457,0,0,1,.425,1.039v.707a6.784,6.784,0,0,1,.783.33l.512-.512a1.475,1.475,0,0,1,1.031-.422h0a1.462,1.462,0,0,1,1.028.415l0,0,.7.7a1.481,1.481,0,0,1,.424,1.038,1.475,1.475,0,0,1-.423,1.034l-.536.537a5.679,5.679,0,0,1,.291.744h.771v0a1.461,1.461,0,0,1,1.036.438,1.463,1.463,0,0,1,.427,1.043v.969a1.456,1.456,0,0,1-.431,1.035,1.445,1.445,0,0,1-1.032.429h-.834a5.405,5.405,0,0,1-.3.692l.6.6a1.49,1.49,0,0,1,.422,1.034,1.491,1.491,0,0,1-.415,1.033h0l-.7.7a1.478,1.478,0,0,1-1.038.423,1.466,1.466,0,0,1-1.033-.42l-.646-.645a5.687,5.687,0,0,1-.65.262v.907a1.465,1.465,0,0,1-.429,1.035,1.461,1.461,0,0,1-1.035.429Zm-1.935-3.765a4.743,4.743,0,0,0,1.161.471.537.537,0,0,1,.4.522v1.308a.391.391,0,0,0,.112.273.374.374,0,0,0,.267.109h.977a.391.391,0,0,0,.271-.111.389.389,0,0,0,.111-.271v-1.308a.541.541,0,0,1,.4-.522,4.762,4.762,0,0,0,1.166-.471.544.544,0,0,1,.269-.071.547.547,0,0,1,.382.156l.922.923a.391.391,0,0,0,.273.109.391.391,0,0,0,.279-.114l.685-.685a.391.391,0,0,0,.109-.272.4.4,0,0,0-.109-.275l-.893-.89a.538.538,0,0,1-.075-.666,4.326,4.326,0,0,0,.506-1.176.54.54,0,0,1,.522-.406h1.233a.382.382,0,0,0,.271-.113.379.379,0,0,0,.111-.27v-.971a.389.389,0,0,0-.111-.279.4.4,0,0,0-.275-.12h-1.183a.545.545,0,0,1-.528-.424,4.322,4.322,0,0,0-.479-1.232.541.541,0,0,1,.086-.65l.815-.815a.386.386,0,0,0,.109-.272.4.4,0,0,0-.109-.276l-.689-.687a.411.411,0,0,0-.274-.109.4.4,0,0,0-.273.109l-.8.8a.54.54,0,0,1-.382.156.532.532,0,0,1-.279-.079,5.03,5.03,0,0,0-1.278-.54.543.543,0,0,1-.4-.521v-1.109a.379.379,0,0,0-.109-.271.375.375,0,0,0-.267-.111h-.984a.361.361,0,0,0-.27.107.365.365,0,0,0-.107.269v1.116a.54.54,0,0,1-.413.526,4.371,4.371,0,0,0-1.26.535.548.548,0,0,1-.282.079.55.55,0,0,1-.384-.156l-.8-.8a.4.4,0,0,0-.274-.109.4.4,0,0,0-.273.111l-.688.686a.4.4,0,0,0-.108.276.385.385,0,0,0,.108.272l.813.815a.543.543,0,0,1,.089.65,4.358,4.358,0,0,0-.482,1.232.538.538,0,0,1-.525.424h-1.187a.4.4,0,0,0-.271.12.379.379,0,0,0-.111.277v.973a.375.375,0,0,0,.111.27.384.384,0,0,0,.271.113h1.233a.54.54,0,0,1,.522.406,4.3,4.3,0,0,0,.506,1.173.542.542,0,0,1-.077.669l-.891.89a.39.39,0,0,0-.108.277.387.387,0,0,0,.112.275l.685.685a.4.4,0,0,0,.273.111.392.392,0,0,0,.274-.111l.922-.923a.544.544,0,0,1,.383-.156A.552.552,0,0,1,12322.956-11442.766Zm.483-2.285a2.737,2.737,0,0,1-.809-1.951,2.74,2.74,0,0,1,.809-1.95,2.742,2.742,0,0,1,1.95-.809,2.739,2.739,0,0,1,1.949.811,2.746,2.746,0,0,1,.811,1.948,2.742,2.742,0,0,1-.81,1.951,2.729,2.729,0,0,1-1.95.809A2.73,2.73,0,0,1,12323.439-11445.051Zm.764-3.137a1.67,1.67,0,0,0-.492,1.186,1.671,1.671,0,0,0,.492,1.188,1.662,1.662,0,0,0,1.187.491,1.665,1.665,0,0,0,1.186-.491,1.666,1.666,0,0,0,.491-1.187,1.665,1.665,0,0,0-.491-1.186,1.665,1.665,0,0,0-1.186-.491A1.662,1.662,0,0,0,12324.2-11448.187Z" transform="translate(-12317.39 11455.001)" fill="#94a6c4"/>
</svg>
