<svg xmlns="http://www.w3.org/2000/svg" width="16" height="16" viewBox="0 0 16 16">
  <path id="Union_59" data-name="Union 59" d="M-1242.669,12207.248a8.094,8.094,0,0,1-2.548-1.716,8.089,8.089,0,0,1-1.716-2.548,7.878,7.878,0,0,1-.626-3.11,7.846,7.846,0,0,1,.626-3.123,8.124,8.124,0,0,1,1.716-2.538,8.1,8.1,0,0,1,2.548-1.713,7.853,7.853,0,0,1,3.11-.626,7.837,7.837,0,0,1,3.123.626,8.118,8.118,0,0,1,2.536,1.713,8.128,8.128,0,0,1,1.716,2.538,7.848,7.848,0,0,1,.626,3.123,7.88,7.88,0,0,1-.626,3.11,8.135,8.135,0,0,1-1.713,2.548,8.1,8.1,0,0,1-2.539,1.713,7.805,7.805,0,0,1-3.123.629A7.87,7.87,0,0,1-1242.669,12207.248Zm-1.616-12.1a6.465,6.465,0,0,0-1.948,4.729,6.467,6.467,0,0,0,1.948,4.727,6.463,6.463,0,0,0,4.726,1.945,6.462,6.462,0,0,0,4.726-1.945,6.468,6.468,0,0,0,1.949-4.727,6.466,6.466,0,0,0-1.949-4.729,6.459,6.459,0,0,0-4.726-1.946A6.46,6.46,0,0,0-1244.285,12195.146Zm.811,4.923.941-.941,1.846,1.824,4.082-4.061.941.94-5.023,5Z" transform="translate(1247.558 -12191.874)" fill="#53b475"/>
</svg>
