<svg xmlns="http://www.w3.org/2000/svg" width="50" height="50" viewBox="0 0 50 50">
  <g id="Сгруппировать_99" data-name="Сгруппировать 99" transform="translate(-423 -828)">
    <g id="icon_1" transform="translate(197 36)">
      <g id="Эллипс_15" data-name="back" transform="translate(226 792)" fill="#fff" stroke="#ea66c1" stroke-width="1.5">
        <circle cx="25" cy="25" r="25" stroke="none" />
        <circle cx="25" cy="25" r="24.25" fill="none" />
      </g>
    </g>
    <path id="noun-email-4763939" data-name="logo"
      d="M99.489,115.17l-.027,0H99.44a.5.5,0,0,0-.068.015.518.518,0,0,0-.056.012.526.526,0,0,0-.235.158l-.014.024-.014.024a.528.528,0,0,0-.063.123l-.006.022a.527.527,0,0,0-.022.141v16.951a.527.527,0,0,0,.527.527h25.356a.527.527,0,0,0,.526-.527V115.716a.526.526,0,0,0-.024-.175l0-.011a.525.525,0,0,0-.07-.136l-.01-.013-.017-.022a604.421,604.421,0,0,0-.113-.1.545.545,0,0,0-.058-.029.527.527,0,0,0-.093-.039.505.505,0,0,0-.061-.01.533.533,0,0,0-.078-.012Zm1.452,1.054h22.444l-11.234,9.319Zm23.376.6v14.44l-7.4-8.3Zm-24.3,0,7.486,6.226-7.486,8.23Zm16.1,6.807,7.556,8.485h-22.99l7.637-8.391,3.5,2.91a.527.527,0,0,0,.676,0Z"
      transform="translate(335.539 729.33)" fill="#ea66c1" stroke="#ea66c1" stroke-width="0.4" />
  </g>
</svg>