<svg xmlns="http://www.w3.org/2000/svg" width="70.711" height="70.711" viewBox="0 0 70.711 70.711">
  <g id="icon_2" transform="translate(-337 -306)">
    <rect id="Прямоугольник_31" data-name="Прямоугольник 31" width="50" height="50" rx="15" transform="translate(337 341.355) rotate(-45)" fill="#ff804f"/>
    <path id="Контур_148" data-name="Контур 148" d="M152.321,84.747a.713.713,0,0,0-.672-.493l-10.5-.1L137.811,74.2a.714.714,0,0,0-1.353,0l-3.342,9.951-10.5.1a.713.713,0,0,0-.418,1.286l8.431,6.254-3.145,10.015a.713.713,0,0,0,1.094.8l8.553-6.086,8.553,6.086a.713.713,0,0,0,1.094-.795l-3.145-10.015,8.431-6.254a.714.714,0,0,0,.253-.794Zm-9.93,6.194a.678.678,0,0,0-.1.087.713.713,0,0,0-.194.583.719.719,0,0,0,.032.141l2.656,8.457-7.223-5.14a.7.7,0,0,0-.111-.068.71.71,0,0,0-.314-.073h0a.713.713,0,0,0-.425.141l-7.224,5.14,2.656-8.457a.715.715,0,0,0,0-.443.713.713,0,0,0-.268-.368l-7.12-5.282,8.88-.088a.713.713,0,0,0,.669-.486l2.827-8.418,2.828,8.418a.714.714,0,0,0,.669.486l8.88.088Z" transform="translate(235.221 253.13)" fill="#fff"/>
  </g>
</svg>
