<svg xmlns="http://www.w3.org/2000/svg" width="50" height="50" viewBox="0 0 50 50">
  <g id="Сгруппировать_101" data-name="Сгруппировать 101" transform="translate(-224 -536)">
    <g id="Прямоугольник_32" data-name="back" transform="translate(224 536)" fill="#fff" stroke="#24d1f4"
      stroke-width="1.5">
      <rect width="50" height="50" rx="15" stroke="none" />
      <rect x="0.75" y="0.75" width="48.5" height="48.5" rx="14.25" fill="none" />
    </g>
    <path id="Контур_154" data-name="logo"
      d="M203.43,144.925a.248.248,0,0,0-.041-.165v-.041a.575.575,0,0,0-.124-.165c-.041-.041-.124-.083-.165-.124a.6.6,0,0,0-.29-.083h-.165l-24.02,5.5a.617.617,0,0,0-.455.744.6.6,0,0,0,.248.372l5.788,4.093,1.075,8.227a.582.582,0,0,0,.413.5c.041,0,.124.041.165.041a.665.665,0,0,0,.455-.207l3.8-4.176,6.7,4.8a.612.612,0,0,0,.868-.165.313.313,0,0,0,.083-.165l5.623-18.769c0-.083.041-.124.041-.207Zm-4.92,1.654-13.684,7.4-4.548-3.225Zm-12.2,15.214-.868-6.739,14.3-7.731L189.58,158.2Zm10.542.91-5.871-4.176,10.46-11.2Z"
      transform="translate(57.209 407.653)" fill="#24d1f4" stroke="#24d1f4" stroke-width="0.3" />
  </g>
</svg>