<svg xmlns="http://www.w3.org/2000/svg" width="50" height="50" viewBox="0 0 50 50">
  <g id="Сгруппировать_99" data-name="Сгруппировать 99" transform="translate(-430 -832)">
    <g id="icon_1" transform="translate(204 40)">
      <g id="Эллипс_15" class="back" data-name="back" transform="translate(226 792)" fill="#fff" stroke="#ea66c1"
        stroke-width="1.5">
        <circle cx="25" cy="25" r="25" stroke="none" />
        <circle cx="25" cy="25" r="24.25" fill="none" />
      </g>
    </g>
    <path class="logo" id="Контур_158" data-name="logo"
      d="M98.712,23.2a5.448,5.448,0,1,1-3.852,1.6A5.428,5.428,0,0,1,98.712,23.2Zm3.03-3.817c.242.079.475.165.7.258s.458.2.679.313l2.672-1.975a.525.525,0,0,1,.684.05h0l2.852,2.852a.527.527,0,0,1,.026.717l-1.952,2.64c.113.222.217.449.313.679s.179.459.258.7l3.286.492a.525.525,0,0,1,.45.521h0v4.033a.527.527,0,0,1-.476.525l-3.261.489c-.079.242-.165.475-.258.7s-.2.458-.313.679l1.975,2.672a.525.525,0,0,1-.05.684h0l-2.852,2.852a.527.527,0,0,1-.717.026l-2.64-1.952c-.222.113-.449.217-.679.313s-.459.179-.7.258l-.492,3.286a.525.525,0,0,1-.521.45H96.694a.527.527,0,0,1-.525-.476l-.489-3.261c-.242-.079-.475-.165-.7-.258s-.458-.2-.679-.313l-2.672,1.975a.525.525,0,0,1-.684-.05h0l-2.852-2.852a.527.527,0,0,1-.026-.717l1.952-2.64c-.113-.222-.217-.449-.313-.679s-.179-.459-.258-.7l-3.286-.492a.525.525,0,0,1-.45-.521h0V26.627a.527.527,0,0,1,.476-.525l3.261-.489q.118-.363.258-.7t.313-.679l-1.975-2.672a.525.525,0,0,1,.05-.684h0l2.852-2.852A.527.527,0,0,1,91.663,18L94.3,19.95q.332-.169.68-.313t.7-.258l.492-3.286a.525.525,0,0,1,.521-.45h4.033a.527.527,0,0,1,.525.476l.489,3.261Zm.3,1.23a8.419,8.419,0,0,0-.873-.309.527.527,0,0,1-.417-.44l-.474-3.163H97.148l-.474,3.163h0a.525.525,0,0,1-.375.429,8.658,8.658,0,0,0-.912.321,8.449,8.449,0,0,0-.875.422A.525.525,0,0,1,93.944,21l-2.574-1.9-2.212,2.212,1.885,2.551a.527.527,0,0,1,.056.589,8.8,8.8,0,0,0-.422.875,8.608,8.608,0,0,0-.31.873.527.527,0,0,1-.44.417l-3.163.474v3.127l3.163.474v0a.525.525,0,0,1,.429.375,8.754,8.754,0,0,0,.744,1.787h0a.525.525,0,0,1-.039.566l-1.9,2.574L91.37,38.2l2.551-1.885a.527.527,0,0,1,.589-.056,8.794,8.794,0,0,0,.875.422,8.418,8.418,0,0,0,.873.309.527.527,0,0,1,.417.44l.474,3.163h3.127l.474-3.163h0a.525.525,0,0,1,.375-.429,8.754,8.754,0,0,0,1.787-.744h0a.525.525,0,0,1,.566.039l2.574,1.9,2.212-2.212-1.885-2.551a.527.527,0,0,1-.056-.589,8.793,8.793,0,0,0,.422-.875,8.417,8.417,0,0,0,.309-.873.527.527,0,0,1,.44-.417l3.163-.474V27.085L107.5,26.61v0a.525.525,0,0,1-.429-.375,8.754,8.754,0,0,0-.744-1.787h0a.525.525,0,0,1,.039-.566l1.9-2.574-2.212-2.212L103.5,20.978a.527.527,0,0,1-.589.056,8.877,8.877,0,0,0-.875-.422Zm-.22,4.928a4.394,4.394,0,1,0,0,6.214,4.717,4.717,0,0,0,1.113-1.88,3.879,3.879,0,0,0,.174-1.227A4.38,4.38,0,0,0,101.819,25.539Z"
      transform="translate(356.289 828.356)" fill="#ea66c1" stroke="#ea66c1" stroke-width="0.3" />
  </g>
</svg>