<svg xmlns="http://www.w3.org/2000/svg" width="50" height="50" viewBox="0 0 50 50">
  <g id="Сгруппировать_92" data-name="Сгруппировать 92" transform="translate(-226 -792)">
    <g id="Эллипс_15" data-name="back" transform="translate(226 792)" fill="#fff" stroke="#ea66c1" stroke-width="1.5">
      <circle cx="25" cy="25" r="25" stroke="none" />
      <circle cx="25" cy="25" r="24.25" fill="none" />
    </g>
    <path class="logo" id="Контур_155" data-name="logo"
      d="M16.294,22.55v-.568a8.632,8.632,0,0,1,.37-2.7,4.659,4.659,0,0,1,1.062-1.762,9.623,9.623,0,0,1,1.748-1.384,7.135,7.135,0,0,0,1.315-1.068,4.032,4.032,0,0,0,.813-1.242,3.839,3.839,0,0,0,.28-1.478,3.669,3.669,0,0,0-.533-1.989,3.63,3.63,0,0,0-1.442-1.32,4.525,4.525,0,0,0-3.988-.011,3.756,3.756,0,0,0-1.489,1.347,4.283,4.283,0,0,0-.629,2.194h-2a5.807,5.807,0,0,1,.866-3.009,5.533,5.533,0,0,1,2.176-1.973,6.562,6.562,0,0,1,3.042-.7,6.378,6.378,0,0,1,3.085.721,5.345,5.345,0,0,1,2.081,1.967,5.433,5.433,0,0,1,.75,2.857,5.322,5.322,0,0,1-.338,1.936,5.132,5.132,0,0,1-1.009,1.61,8.551,8.551,0,0,1-1.674,1.389,7.957,7.957,0,0,0-1.511,1.252,3.709,3.709,0,0,0-.8,1.415,7.207,7.207,0,0,0-.264,1.952v.568Zm1.014,6.334a1.53,1.53,0,0,1-1.521-1.515,1.45,1.45,0,0,1,.449-1.073,1.522,1.522,0,0,1,2.144,0,1.5,1.5,0,0,1,.243,1.831,1.561,1.561,0,0,1-.549.552A1.464,1.464,0,0,1,17.309,28.884Z"
      transform="translate(233.195 799.117)" fill="#ea66c1" />
  </g>
</svg>