<svg xmlns="http://www.w3.org/2000/svg" width="50" height="50" viewBox="0 0 50 50">
  <g id="Сгруппировать_93" data-name="Сгруппировать 93" transform="translate(-226 -509)">
    <g data-name='back' id="Прямоугольник_32" transform="translate(226 509)" fill="#fff" stroke="#24d1f4"
      stroke-width="1.5">
      <rect width="50" height="50" rx="15" stroke="none" />
      <rect x="0.75" y="0.75" width="48.5" height="48.5" rx="14.25" fill="none" />
    </g>
    <path data-name='logo' id="Контур_159"
      d="M112,28a14,14,0,1,0,6.536,26.384.451.451,0,1,0-.422-.8,13.076,13.076,0,1,1,6.659-8.678,3.614,3.614,0,0,1-1.073,1.881,2.844,2.844,0,0,1-1.932.746,2.984,2.984,0,0,1-2.216-.981.426.426,0,0,0-.087-.064,2.454,2.454,0,0,0,.213-1v-6.94a2.465,2.465,0,0,0-2.464-2.464H106.787a2.464,2.464,0,0,0-2.464,2.464v6.94a2.464,2.464,0,0,0,2.464,2.464h10.427a2.455,2.455,0,0,0,1.742-.722,3.883,3.883,0,0,0,2.812,1.2,3.751,3.751,0,0,0,2.536-.978,4.514,4.514,0,0,0,1.349-2.351h0A14.012,14.012,0,0,0,112,28Zm-6.317,9.447a1.555,1.555,0,0,1,1.1-.457h10.427a1.548,1.548,0,0,1,1.538,1.335l-5.878,3.939-.012.008a1.475,1.475,0,0,1-1.723,0l-.012-.008-5.878-3.939a1.553,1.553,0,0,1,.434-.878Zm13.091,8.044a1.561,1.561,0,0,1-1.561,1.561H106.786a1.561,1.561,0,0,1-1.561-1.561V39.4l5.4,3.617h0a2.373,2.373,0,0,0,2.753,0h0l5.4-3.617Z"
      transform="translate(139 492)" fill="#24d1f4" stroke="#24d1f4" stroke-width="0.4" />
  </g>
</svg>