<svg xmlns="http://www.w3.org/2000/svg" width="50" height="50" viewBox="0 0 50 50">
  <g id="Сгруппировать_101" data-name="Сгруппировать 101" transform="translate(-224 -536)">
    <g class="back" id="Прямоугольник_32" data-name="Прямоугольник 32" transform="translate(224 536)" fill="#fff"
      stroke="#24d1f4" stroke-width="1.5">
      <rect width="50" height="50" rx="15" stroke="none" />
      <rect x="0.75" y="0.75" width="48.5" height="48.5" rx="14.25" fill="none" />
    </g>
    <path class="logo" id="Контур_149" data-name="Контур 149"
      d="M238.5,101.507l-1.352-2.215-.319-6.966a.379.379,0,0,0,0-.043,8.212,8.212,0,0,0-4.46-6.389V83.906a2.784,2.784,0,0,0-5.567,0v1.98a7.878,7.878,0,0,0-4.463,6.439l-.349,7.231-1.308,1.928a.555.555,0,0,0-.027.583.588.588,0,0,0,.514.3h5.264v.958a3.154,3.154,0,0,0,6.3,0v-.958H238a.588.588,0,0,0,.508-.288.554.554,0,0,0-.007-.572Zm-10.533-17.6a1.616,1.616,0,0,1,3.231,0v1.586a6.731,6.731,0,0,0-1.615-.2,6.883,6.883,0,0,0-1.615.2Zm3.6,19.418a1.985,1.985,0,0,1-3.969,0v-.958h3.968v.958Zm.584-2.1h-9.9l.8-1.176a.563.563,0,0,0,.1-.287l.353-7.35c.346-2.974,2.547-5.985,6.083-5.985,3.462,0,5.713,3.071,6.081,5.968l.325,7.087a.558.558,0,0,0,.081.266l.9,1.477Z"
      transform="translate(19.421 467.206)" fill="#24d1f4" stroke="#24d1f4" stroke-width="0.3" />
  </g>
</svg>