<svg xmlns="http://www.w3.org/2000/svg" width="17.3" height="17.3" viewBox="0 0 17.3 17.3">
    <g transform="translate(-274.062 -601.588)">
        <path d="M3833.314,1805.588a.65.65,0,0,1,.65.631l.4,13.293a.65.65,0,0,1-.906.617l-6.831-2.929a.65.65,0,0,1-.3-.941l3.222-5.176-5.676,5.576a.651.651,0,0,1-.648.157l-5.708-1.766a.65.65,0,0,1-.11-1.2l15.6-8.19A.649.649,0,0,1,3833.314,1805.588Zm-.282,12.945-.3-10.1-4.9,7.867Zm-9.791-3.073,6.995-6.871-10.829,5.685Z" transform="translate(-3543 -1204)" fill="#a2b3ce" />
        <path d="M3836.091,1844.386a.65.65,0,0,1-.616-.443l-2.1-6.256,1.232-.413,1.415,4.22.926-3.423,1.255.339-1.487,5.5a.65.65,0,0,1-.608.48Z" transform="translate(-3553.727 -1225.498)" fill="#a2b3ce" />
        <path d="M3840.012,1845.62l-.855-.979,4.6-4.015.855.979Z" transform="translate(-3557.282 -1227.009)" fill="#a2b3ce" />
    </g>
</svg>