<svg xmlns="http://www.w3.org/2000/svg" width="16" height="16" viewBox="0 0 16 16">
  <g id="noun-delete-4025464" transform="translate(-105.28 -35.016)">
    <path id="Контур_144" data-name="Контур 144" d="M111.707,35.016a1.721,1.721,0,0,0-1.714,1.712V37.3h-4.139a.571.571,0,1,0,0,1.143h1.025l.682,10.091a2.594,2.594,0,0,0,2.525,2.484h6.389A2.594,2.594,0,0,0,119,48.532l.684-10.091h1.022a.571.571,0,1,0,0-1.143h-4.138v-.569a1.721,1.721,0,0,0-1.714-1.712Zm0,1.143h3.146a.555.555,0,0,1,.57.569V37.3h-4.291v-.569a.558.558,0,0,1,.574-.569Zm-3.688,2.281h10.519l-.677,10.011a1.412,1.412,0,0,1-1.385,1.422h-6.389a1.412,1.412,0,0,1-1.385-1.422Z" transform="translate(0)" fill="#94a6c4"/>
    <path id="Контур_145" data-name="Контур 145" d="M280.619,209.91a.572.572,0,0,0-.57.574V216.2a.572.572,0,1,0,1.144,0v-5.712a.572.572,0,0,0-.574-.574Z" transform="translate(-169.056 -169.183)" fill="#94a6c4"/>
    <path id="Контур_146" data-name="Контур 146" d="M385.528,209.91a.572.572,0,0,0-.574.574V216.2a.572.572,0,1,0,1.144,0v-5.712a.572.572,0,0,0-.57-.574Z" transform="translate(-270.531 -169.183)" fill="#94a6c4"/>
  </g>
</svg>
