<svg xmlns="http://www.w3.org/2000/svg" width="20" height="18" viewBox="0 0 20 18">
  <g id="Сгруппировать_28" data-name="Сгруппировать 28" transform="translate(10607.881 23351.998)">
    <path id="Объединение_26" data-name="Объединение 26" d="M1.213,18A1.218,1.218,0,0,1,0,16.78V1.22A1.221,1.221,0,0,1,.949.029L.929,0H5.123A2.306,2.306,0,0,1,6.5.52l.851.747a.994.994,0,0,0,.484.182H18.788a1.2,1.2,0,0,1,.856.358A1.222,1.222,0,0,1,20,2.67l-.01,14.108A1.219,1.219,0,0,1,18.777,18Zm.148-1.372H18.629c0-1.031.005-7.178.008-10.963H1.361C1.361,9.851,1.36,15.627,1.36,16.628ZM18.638,4.292c0-.707,0-1.23,0-1.472H7.837A2.314,2.314,0,0,1,6.458,2.3l-.85-.747a1,1,0,0,0-.484-.181H1.361c0,.384,0,1.48,0,2.921ZM9.315,14.775V9.034L7.29,11.082a.668.668,0,0,1-.476.21.721.721,0,0,1-.643-.447.66.66,0,0,1,.158-.733L9.411,6.949a.8.8,0,0,1,1.146,0l3.1,3.167a.66.66,0,0,1,.157.733.719.719,0,0,1-.643.447.664.664,0,0,1-.476-.21L10.674,9.035v5.74a.68.68,0,1,1-1.36,0ZM7.836,2.82h0Z" transform="translate(-10607.881 -23351.998)" fill="#94a6c4"/>
  </g>
</svg>
