<svg xmlns="http://www.w3.org/2000/svg" width="16" height="16" viewBox="0 0 16 16">
  <path id="Path_514" data-name="Path 514" d="M19.442-59.15a.6.6,0,0,0,.44-.176.6.6,0,0,0,.175-.439.6.6,0,0,0-.175-.44.6.6,0,0,0-.44-.176A.6.6,0,0,0,19-60.2a.6.6,0,0,0-.175.44.6.6,0,0,0,.175.439A.6.6,0,0,0,19.442-59.15Zm-.572-2.858h1.144v-5.275H18.87Zm.572,6.88a7.823,7.823,0,0,1-3.11-.626,8.069,8.069,0,0,1-2.55-1.714,8.069,8.069,0,0,1-1.714-2.55,7.823,7.823,0,0,1-.626-3.11,7.8,7.8,0,0,1,.626-3.121,8.1,8.1,0,0,1,1.714-2.539,8.069,8.069,0,0,1,2.55-1.714,7.823,7.823,0,0,1,3.11-.626,7.8,7.8,0,0,1,3.121.626A8.1,8.1,0,0,1,25.1-68.788a8.069,8.069,0,0,1,1.714,2.55,7.823,7.823,0,0,1,.626,3.11,7.823,7.823,0,0,1-.626,3.11,8.069,8.069,0,0,1-1.714,2.55,8.069,8.069,0,0,1-2.55,1.714A7.823,7.823,0,0,1,19.442-55.128Zm0-1.143a6.613,6.613,0,0,0,4.857-2,6.613,6.613,0,0,0,2-4.857,6.613,6.613,0,0,0-2-4.857,6.613,6.613,0,0,0-4.857-2,6.613,6.613,0,0,0-4.857,2,6.613,6.613,0,0,0-2,4.857,6.613,6.613,0,0,0,2,4.857A6.613,6.613,0,0,0,19.442-56.27Zm0-6.857Z" transform="translate(-11.442 71.128)" fill="#ff3b45"/>
</svg>
