<svg xmlns="http://www.w3.org/2000/svg" width="17.642" height="19.999" viewBox="0 0 17.642 19.999">
  <path id="Объединение_28" data-name="Объединение 28" d="M12614,8925.325a8.431,8.431,0,0,1,2.59-6.09,8.9,8.9,0,0,1,6.232-2.5h.124l-1.49-1.219a.819.819,0,0,1-.285-.889.843.843,0,0,1,.741-.589l.438-.037-.028.1a.792.792,0,0,1,.222.133l3.3,2.687a.828.828,0,0,1,.307.643.82.82,0,0,1-.311.643l-3.3,2.69a.862.862,0,0,1-1.2-.112.807.807,0,0,1-.193-.607.829.829,0,0,1,.3-.565l1.49-1.213h-.121a7.2,7.2,0,0,0-5.044,2.01,6.809,6.809,0,0,0-2.079,4.918,6.912,6.912,0,0,0,2.086,4.961,7.208,7.208,0,0,0,10.071,0,6.908,6.908,0,0,0,2.086-4.961,6.825,6.825,0,0,0-.729-3.078.826.826,0,0,1,.352-1.17.891.891,0,0,1,.685-.033.842.842,0,0,1,.481.465,8.587,8.587,0,0,1,.91,3.816,8.822,8.822,0,0,1-17.642,0Z" transform="translate(-12613.999 -8914.001)" fill="#94a6c4"/>
</svg>
