<svg id="Сгруппировать_29" data-name="Сгруппировать 29" xmlns="http://www.w3.org/2000/svg" width="20" height="17.5" viewBox="0 0 20 17.5">
  <g id="Сгруппировать_10" data-name="Сгруппировать 10" transform="translate(0 0)">
    <path id="Контур_213" data-name="Контур 213" d="M220.544,339.825H217.9a2.52,2.52,0,0,0-4.634,0H202.43a.924.924,0,1,0,0,1.847h10.841a2.52,2.52,0,0,0,4.634,0h2.639a.924.924,0,1,0,0-1.847Zm-4.955,2.213a1.334,1.334,0,0,1-.92-.366,1.267,1.267,0,0,1,0-1.847,1.34,1.34,0,0,1,1.84,0,1.275,1.275,0,0,1,0,1.847A1.335,1.335,0,0,1,215.59,342.038Z" transform="translate(-201.487 -325.702)" fill="#94a6c4"/>
    <path id="Контур_214" data-name="Контур 214" d="M220.546,244.452H209.14a2.519,2.519,0,0,0-4.627,0h-2.081a.924.924,0,1,0,0,1.847h2.081a2.517,2.517,0,0,0,4.627,0h11.407a.924.924,0,1,0,0-1.847ZM207.737,246.3a1.326,1.326,0,0,1-1.821,0,1.267,1.267,0,0,1,0-1.847,1.326,1.326,0,0,1,1.821,0,1.259,1.259,0,0,1,0,1.847Z" transform="translate(-201.489 -236.627)" fill="#94a6c4"/>
    <path id="Контур_215" data-name="Контур 215" d="M220.544,148.915H217.9a2.52,2.52,0,0,0-4.634,0H202.43a.924.924,0,1,0,0,1.847h10.841a2.522,2.522,0,0,0,4.634,0h2.639a.924.924,0,1,0,0-1.847Zm-4.039,1.847a1.336,1.336,0,0,1-1.836,0,1.267,1.267,0,0,1,0-1.847,1.326,1.326,0,0,1,1.836,0,1.267,1.267,0,0,1,0,1.847Z" transform="translate(-201.487 -147.386)" fill="#94a6c4"/>
  </g>
</svg>
